<?xml version="1.0" standalone="no"?>
<!DOCTYPE svg PUBLIC "-//W3C//DTD SVG 20010904//EN"
 "http://www.w3.org/TR/2001/REC-SVG-20010904/DTD/svg10.dtd">
<svg version="1.0" xmlns="http://www.w3.org/2000/svg"
 width="254.000000pt" height="50.000000pt" viewBox="0 0 254.000000 50.000000"
 preserveAspectRatio="xMidYMid meet">

<g transform="translate(0.000000,50.000000) scale(0.100000,-0.100000)"
fill="#000000" stroke="none">
<path d="M264 341 c-24 -11 -34 -64 -24 -135 4 -35 9 -41 40 -49 50 -13 193
-5 213 12 13 10 17 30 17 75 0 94 -8 101 -127 103 -54 2 -108 -1 -119 -6z
m117 -68 c16 -10 29 -20 29 -23 0 -6 -54 -40 -64 -40 -3 0 -6 18 -6 40 0 46 1
46 41 23z"/>
<path d="M590 301 c0 -11 5 -23 11 -26 6 -4 9 -25 7 -48 -2 -32 1 -41 15 -43
12 -1 17 5 17 22 0 21 5 24 35 24 28 0 35 4 35 19 0 15 -8 21 -32 24 -29 3
-27 4 10 5 35 2 42 5 42 22 0 18 -7 20 -70 20 -63 0 -70 -2 -70 -19z"/>
<path d="M784 289 c3 -19 0 -41 -9 -59 -8 -16 -15 -33 -15 -39 0 -10 25 -9 36
2 11 10 72 9 78 -2 7 -11 29 -9 35 2 2 5 -9 35 -24 68 -28 57 -30 59 -68 59
-39 0 -39 -1 -33 -31z m66 -40 c0 -5 -4 -9 -10 -9 -5 0 -10 7 -10 16 0 8 5 12
10 9 6 -3 10 -10 10 -16z"/>
<path d="M952 283 c3 -38 3 -38 51 -41 60 -4 62 -22 1 -22 -37 0 -45 -3 -42
-16 3 -15 40 -20 118 -15 6 1 10 30 10 66 0 51 -3 65 -15 65 -8 0 -15 -9 -15
-20 0 -16 -7 -20 -35 -20 -28 0 -35 4 -35 20 0 14 -7 20 -21 20 -17 0 -20 -5
-17 -37z"/>
<path d="M1162 293 c1 -16 -6 -42 -15 -60 -9 -18 -17 -36 -17 -42 0 -10 25 -9
36 2 10 10 68 9 79 -2 6 -5 17 -6 26 -2 14 5 13 14 -12 69 -27 59 -30 62 -64
62 -32 0 -35 -2 -33 -27z m58 -44 c0 -5 -4 -9 -10 -9 -5 0 -10 7 -10 16 0 8 5
12 10 9 6 -3 10 -10 10 -16z"/>
<path d="M1313 303 c-4 -9 -1 -19 5 -21 7 -2 12 -23 12 -47 0 -28 5 -45 14
-48 19 -7 26 1 26 32 l1 26 27 -31 c43 -49 57 -40 60 39 3 62 1 67 -18 67 -16
0 -20 -7 -20 -32 l-1 -33 -28 33 c-30 35 -68 42 -78 15z"/>
<path d="M1580 300 c0 -16 7 -20 30 -20 29 0 30 -1 30 -48 0 -37 4 -49 15 -49
11 0 15 12 15 49 0 47 1 48 30 48 23 0 30 4 30 20 0 18 -7 20 -75 20 -68 0
-75 -2 -75 -20z"/>
<path d="M1756 263 c4 -32 9 -61 13 -65 9 -9 105 -13 119 -4 7 4 12 31 12 67
0 52 -2 59 -20 59 -17 0 -20 -7 -20 -51 0 -49 -1 -50 -27 -47 -26 3 -28 7 -31
51 -3 42 -5 47 -28 47 -24 0 -24 -1 -18 -57z"/>
<path d="M1930 301 c0 -11 5 -23 11 -26 6 -4 9 -25 7 -47 l-2 -41 51 0 c28 0
55 3 61 7 6 3 10 32 9 64 l-2 57 -67 3 c-62 3 -68 1 -68 -17z m93 -28 c-7 -2
-19 -2 -25 0 -7 3 -2 5 12 5 14 0 19 -2 13 -5z m0 -50 c-7 -2 -19 -2 -25 0 -7
3 -2 5 12 5 14 0 19 -2 13 -5z"/>
<path d="M2100 300 c0 -11 5 -20 10 -20 6 0 10 -21 10 -47 l0 -48 60 0 c50 0
60 3 60 18 0 13 -9 17 -42 19 -37 1 -39 2 -10 5 23 3 32 9 32 23 0 14 -9 20
-32 23 -29 3 -27 4 10 5 35 2 42 5 42 22 0 18 -7 20 -70 20 -63 0 -70 -2 -70
-20z"/>
</g>
</svg>
